<?xml version="1.0" standalone="no"?>
<!DOCTYPE svg PUBLIC "-//W3C//DTD SVG 20010904//EN"
 "http://www.w3.org/TR/2001/REC-SVG-20010904/DTD/svg10.dtd">
<svg version="1.0" xmlns="http://www.w3.org/2000/svg"
 width="400.000000pt" height="218.000000pt" viewBox="0 0 400.000000 218.000000"
 preserveAspectRatio="xMidYMid meet">

<g transform="translate(0.000000,218.000000) scale(0.100000,-0.100000)"
fill="#000000" stroke="none">
<path d="M1610 2098 c-40 -21 -36 -53 16 -156 39 -77 62 -109 131 -176 61 -59
87 -92 95 -121 14 -50 10 -45 52 -55 33 -7 40 -5 67 23 40 40 49 65 49 140 0
119 -94 258 -214 317 -73 36 -158 48 -196 28z"/>
<path d="M1497 2032 c-43 -48 -56 -118 -36 -198 10 -40 15 -45 33 -40 12 4 49
9 84 13 34 3 62 7 62 9 0 2 -13 25 -29 51 -16 27 -36 72 -45 102 -15 53 -31
81 -46 81 -4 0 -14 -8 -23 -18z"/>
<path d="M2097 1861 c-35 -87 -29 -185 14 -242 l19 -24 0 27 c0 33 39 63 68
54 17 -6 72 -75 72 -91 0 -4 -15 4 -32 16 l-33 22 35 -37 35 -37 -29 11 c-41
15 -45 4 -5 -14 l34 -16 -50 6 c-27 3 -68 6 -90 7 -22 1 -51 10 -65 20 -36 25
-75 22 -99 -9 -19 -24 -21 -25 -45 -9 -14 9 -31 15 -37 13 -7 -2 4 -14 24 -25
44 -27 66 -59 73 -109 l6 -39 -27 40 -26 40 7 -35 6 -35 -21 19 c-30 27 -36
14 -6 -14 37 -35 30 -45 -12 -20 l-38 22 33 -31 c39 -38 23 -40 -41 -5 -64 34
-83 26 -20 -9 27 -15 40 -27 30 -27 -10 0 -27 5 -38 10 -12 7 -19 7 -19 1 0
-6 21 -17 48 -25 27 -8 41 -16 32 -19 -40 -14 -42 -17 -12 -12 20 3 31 1 27
-5 -3 -6 -15 -10 -25 -10 -10 0 -22 -5 -26 -11 -5 -9 4 -10 31 -5 47 9 40 -3
-20 -33 -36 -18 -57 -22 -93 -18 -42 5 -45 4 -27 -9 10 -8 25 -14 32 -14 8 0
13 -12 13 -30 0 -32 33 -70 60 -70 9 0 27 -11 40 -25 33 -35 91 -35 117 0 17
23 21 24 54 14 56 -17 103 -4 138 38 l30 36 40 -35 c22 -19 56 -39 75 -45 35
-11 35 -11 41 26 5 32 -9 138 -20 149 -5 6 50 52 63 52 6 0 32 -11 59 -25 60
-31 170 -45 178 -23 8 20 -27 97 -59 131 -14 15 -26 30 -26 32 0 2 12 21 26
42 15 23 44 47 73 60 26 13 57 33 70 46 l22 24 -33 25 c-40 29 -78 45 -137 54
-42 6 -74 28 -96 68 -7 12 -27 20 -58 23 -26 3 -50 10 -53 14 -3 5 -29 9 -57
9 -70 0 -127 10 -127 23 0 18 -50 77 -80 92 -28 14 -28 14 -43 -24z m248 -104
c57 -2 60 -3 59 -27 -2 -39 -29 -131 -37 -124 -4 4 -7 20 -7 35 0 32 -16 48
-23 22 -3 -13 -5 -11 -7 7 -2 16 -5 9 -9 -20 l-7 -45 -17 35 c-14 28 -16 30
-13 10 2 -14 7 -34 11 -45 5 -14 -1 -11 -20 10 -15 17 -38 43 -52 58 -26 28
-26 29 -9 64 15 31 20 34 44 28 15 -3 54 -7 87 -8z m153 -37 c12 -12 22 -26
22 -33 0 -7 10 -17 23 -22 15 -7 22 -18 22 -37 -1 -16 4 -28 11 -28 43 0 58
-116 21 -157 -16 -18 -31 -23 -73 -23 -53 0 -53 0 -48 -28 5 -22 -2 -36 -39
-75 -37 -39 -51 -47 -80 -47 -57 0 -66 7 -60 46 4 24 1 40 -10 52 -15 16 -14
20 8 47 l25 30 -10 -30 -10 -30 20 25 20 25 1 -40 1 -40 12 35 c9 23 15 30 18
20 3 -8 4 -3 2 13 -4 33 9 35 24 5 8 -18 11 -19 11 -5 1 20 5 21 34 6 21 -12
21 -11 5 8 -25 28 -23 32 17 23 44 -10 45 -4 3 14 l-33 14 40 2 c40 2 40 2 12
13 l-27 11 27 13 28 13 -32 -5 c-48 -7 -40 9 20 39 56 29 38 29 -28 1 l-40
-17 23 24 c31 34 27 43 -8 18 -34 -24 -41 -13 -10 15 11 10 20 23 20 28 0 6
-11 0 -25 -13 -28 -27 -36 -8 -10 26 19 25 19 40 0 24 -21 -17 -20 8 1 38 19
27 44 28 72 2z m-104 -151 c45 -35 31 -99 -21 -99 -64 0 -98 71 -51 104 29 21
40 20 72 -5z m-331 -19 c18 -14 40 -20 75 -20 28 0 54 -4 57 -10 3 -5 21 -10
38 -11 31 -1 31 -1 7 -9 -27 -9 -19 -13 18 -10 12 1 22 -3 22 -9 0 -6 -10 -11
-22 -12 -21 0 -21 -1 -4 -8 18 -7 18 -8 -5 -24 -30 -21 -18 -22 22 -1 l30 15
-17 -28 c-10 -15 -19 -29 -20 -31 -1 -1 -13 3 -28 9 -22 10 -33 8 -77 -14 -28
-15 -53 -27 -55 -27 -3 0 3 12 13 28 10 16 11 22 3 15 -21 -20 -32 -15 -20 7
7 12 7 20 1 20 -5 0 -13 -9 -16 -20 -10 -32 -25 -23 -18 10 8 40 -4 38 -16 -2
l-9 -33 -1 38 c-1 41 -21 52 -21 12 0 -14 -4 -25 -10 -25 -5 0 -10 10 -10 23
-1 12 -7 33 -15 47 -19 33 -19 55 1 74 21 21 46 20 77 -4z m202 -185 c14 -13
25 -30 25 -36 0 -7 -20 -32 -45 -56 -45 -43 -45 -43 -30 -74 15 -28 15 -32 -5
-65 -12 -19 -35 -41 -50 -49 -63 -33 -111 -10 -129 59 -15 60 -14 75 4 52 15
-20 15 -20 15 0 0 16 4 14 25 -11 28 -34 32 -28 10 15 -14 27 -5 44 10 20 3
-5 11 -10 17 -10 7 0 6 6 -2 15 -15 18 1 20 18 3 7 -7 12 -8 12 -2 0 6 -5 15
-12 22 -9 9 -7 12 13 12 23 1 23 1 4 13 -19 11 -17 12 15 18 l35 6 -37 2 c-47
1 -49 14 -5 29 l32 12 -40 -5 -40 -4 35 29 c45 38 91 40 125 5z m-214 -24 c32
-32 37 -62 14 -85 -25 -24 -52 -28 -85 -11 -26 13 -30 21 -30 55 0 29 6 43 22
54 32 22 45 20 79 -13z m-115 -146 c-9 -14 -12 -25 -6 -25 6 0 16 11 22 25 16
35 28 31 23 -7 -5 -31 -3 -29 12 12 4 10 10 1 19 -25 17 -55 17 -101 -2 -119
-22 -23 -76 -21 -92 4 -6 11 -29 27 -49 35 -67 28 -72 65 -12 95 45 23 60 20
38 -7 -12 -15 -12 -16 1 -8 8 5 23 20 34 33 24 30 34 20 12 -13z"/>
<path d="M2326 1533 c-12 -12 -6 -23 25 -39 29 -14 33 -14 47 0 21 20 7 34
-18 18 -25 -16 -30 -15 -30 2 0 17 -14 28 -24 19z"/>
<path d="M2030 1300 c0 -6 -11 -8 -25 -4 -15 4 -25 2 -25 -5 0 -6 9 -11 19
-11 11 0 26 -3 34 -6 10 -3 20 3 27 15 9 18 8 21 -10 21 -11 0 -20 -5 -20 -10z"/>
<path d="M1522 1745 c-125 -30 -245 -123 -292 -226 -21 -48 -26 -119 -10 -150
16 -30 56 -24 87 14 62 73 134 137 182 161 77 40 262 98 293 94 69 -11 -12 82
-94 107 -61 18 -94 18 -166 0z"/>
<path d="M1625 1558 c-119 -54 -206 -113 -285 -193 -52 -54 -62 -69 -54 -83
21 -33 66 -47 154 -47 77 0 92 3 161 36 92 44 149 94 201 173 43 66 48 106 18
136 -32 32 -91 25 -195 -22z"/>
<path d="M2007 829 c-26 -15 -38 -54 -27 -83 8 -21 4 -27 -31 -50 -34 -23 -39
-31 -39 -64 0 -56 35 -86 99 -86 35 0 56 6 77 23 l29 22 16 -20 c10 -12 29
-21 45 -21 l28 0 -27 28 c-33 35 -33 38 -1 96 25 44 25 46 6 46 -15 0 -19 -5
-15 -20 3 -11 -3 -32 -12 -47 l-18 -27 -19 25 c-11 13 -37 42 -58 64 -34 36
-45 63 -41 103 1 6 14 12 31 12 39 0 61 -39 41 -71 -11 -19 -10 -19 9 -9 24
13 27 52 4 74 -18 18 -70 21 -97 5z m47 -169 c25 -27 46 -53 46 -58 0 -15 -47
-42 -73 -42 -36 0 -77 43 -77 81 0 33 24 69 45 69 7 0 33 -22 59 -50z"/>
<path d="M321 817 c37 -28 29 -100 -13 -117 -18 -7 -19 -9 -5 -9 27 -1 57 -38
57 -71 0 -17 -9 -39 -20 -50 -19 -19 -19 -20 -1 -20 31 0 71 39 71 68 0 37
-14 55 -52 68 l-33 11 32 16 c36 19 49 47 33 77 -6 11 -12 20 -13 20 -1 0 -18
4 -37 10 -28 7 -32 7 -19 -3z"/>
<path d="M487 805 c5 -11 8 -73 8 -138 l0 -117 30 0 30 0 0 138 0 137 -38 0
c-33 1 -36 -1 -30 -20z"/>
<path d="M804 816 c-51 -22 -74 -65 -74 -135 0 -56 3 -63 35 -96 48 -48 73
-47 40 1 -20 30 -25 49 -25 101 0 69 10 98 44 125 25 21 21 22 -20 4z"/>
<path d="M915 801 c28 -31 30 -37 30 -116 0 -79 -2 -85 -30 -115 -23 -24 -25
-30 -10 -24 38 14 74 47 85 77 30 88 -6 180 -80 202 -25 7 -25 7 5 -24z"/>
<path d="M1243 806 c47 -43 51 -184 7 -231 -38 -40 2 -32 43 9 37 37 52 86 41
133 -10 42 -49 89 -85 102 l-32 11 26 -24z"/>
<path d="M1411 807 c6 -10 9 -72 7 -137 -2 -76 1 -120 7 -120 6 0 9 44 8 117
l-3 118 26 -55 c14 -30 37 -83 52 -117 15 -34 30 -63 34 -63 10 0 28 59 19 65
-5 2 -28 49 -51 104 -41 94 -46 99 -76 103 -29 3 -31 2 -23 -15z"/>
<path d="M3072 807 c5 -10 8 -72 6 -137 l-3 -120 28 0 28 0 -2 129 c0 71 1
133 4 138 3 5 -12 9 -33 8 -33 0 -37 -2 -28 -18z"/>
<path d="M3205 819 c11 -6 28 -21 38 -33 18 -21 18 -21 15 9 -3 26 -7 30 -38
33 -31 2 -33 1 -15 -9z"/>
<path d="M3497 780 c24 -49 46 -99 63 -145 34 -91 45 -103 56 -60 4 17 -6 56
-30 118 -20 51 -36 100 -36 109 0 11 -11 17 -38 19 l-37 4 22 -45z"/>
<path d="M195 685 l0 -135 30 0 30 0 0 135 0 135 -30 0 -30 0 0 -135z"/>
<path d="M1112 804 c-34 -24 -52 -68 -52 -128 0 -50 3 -59 35 -91 45 -45 76
-49 44 -6 -39 53 -38 182 2 222 23 23 3 26 -29 3z"/>
<path d="M1640 801 c-15 -29 -12 -38 5 -15 14 17 15 7 13 -109 l-3 -127 25 0
25 0 0 135 0 135 -27 0 c-17 0 -31 -8 -38 -19z"/>
<path d="M2415 685 l0 -135 30 0 30 0 0 135 0 135 -30 0 -30 0 0 -135z"/>
<path d="M2549 806 c7 -8 11 -32 9 -53 -3 -33 -7 -39 -38 -50 -31 -11 -32 -12
-9 -12 35 -1 93 39 97 68 4 27 -24 61 -51 61 -16 0 -17 -3 -8 -14z"/>
<path d="M2708 811 c10 -6 12 -38 10 -134 l-3 -127 30 0 30 0 -3 135 -3 135
-37 0 c-24 0 -32 -3 -24 -9z"/>
<path d="M2858 804 c46 -32 20 -124 -36 -124 -27 0 -29 -16 -2 -23 11 -3 34
-28 51 -56 31 -49 58 -69 78 -56 10 6 -41 96 -65 116 -11 9 -8 17 16 39 17 16
30 38 30 52 0 33 -35 68 -68 68 l-26 0 22 -16z"/>
<path d="M3345 803 c4 -10 28 -71 53 -135 24 -65 48 -118 52 -118 13 0 31 52
22 64 -16 19 -72 188 -66 197 3 5 -11 9 -31 9 -32 0 -36 -3 -30 -17z"/>
<path d="M3676 807 c3 -8 0 -26 -6 -42 -17 -45 -5 -38 17 10 20 43 20 45 2 45
-11 0 -16 -5 -13 -13z"/>
<path d="M1616 741 c-13 -20 -25 -62 -17 -57 5 3 14 19 19 36 10 29 9 40 -2
21z"/>
<path d="M3191 709 c-11 -19 -10 -24 8 -43 l21 -20 0 42 c0 47 -8 53 -29 21z"/>
<path d="M3500 679 c-7 -11 -10 -23 -7 -25 2 -2 9 7 15 21 14 30 7 33 -8 4z"/>
<path d="M2550 682 c0 -5 7 -15 15 -22 21 -18 19 -62 -5 -88 l-21 -22 21 0
c26 0 70 43 70 68 0 11 -8 29 -17 40 -20 22 -63 39 -63 24z"/>
<path d="M3636 665 c-9 -26 -7 -32 5 -12 6 10 9 21 6 23 -2 3 -7 -2 -11 -11z"/>
<path d="M1575 639 c-4 -6 -5 -12 -2 -15 2 -3 7 2 10 11 7 17 1 20 -8 4z"/>
<path d="M648 579 l-27 -29 30 0 c26 0 29 3 29 30 0 17 -1 29 -2 29 -2 -1 -15
-14 -30 -30z"/>
<path d="M3233 574 l-22 -24 24 0 c20 0 25 5 25 25 0 29 1 29 -27 -1z"/>
<path d="M846 364 c-32 -32 -8 -84 39 -84 13 0 26 4 29 8 3 5 -8 6 -24 4 -21
-3 -31 1 -39 17 -16 29 1 59 36 64 l28 4 -27 2 c-15 0 -34 -6 -42 -15z"/>
<path d="M986 364 c-34 -33 -8 -84 43 -84 34 0 51 17 51 52 0 44 -61 65 -94
32z m76 -19 c9 -21 9 -29 -5 -42 -21 -21 -70 -7 -75 20 -9 47 60 66 80 22z"/>
<path d="M1140 330 c0 -29 4 -50 11 -50 6 0 9 16 7 42 -3 38 0 43 22 49 23 6
23 7 -7 8 -33 1 -33 1 -33 -49z"/>
<path d="M1257 373 c-11 -10 -8 -93 3 -93 6 0 10 11 10 24 0 15 7 26 18 29 16
4 16 5 0 6 -26 2 -22 29 5 34 20 4 20 4 -4 6 -14 0 -29 -2 -32 -6z"/>
<path d="M1367 373 c-4 -3 -7 -26 -7 -50 l0 -43 38 1 c29 2 31 3 10 6 -24 4
-27 8 -26 43 0 34 4 39 27 43 24 4 24 4 -5 6 -17 0 -34 -2 -37 -6z"/>
<path d="M1487 373 c-4 -3 -7 -26 -7 -50 l0 -43 38 1 c30 2 32 3 10 6 -35 5
-39 40 -5 46 l22 4 -22 2 c-33 2 -29 29 5 34 26 4 26 4 -4 6 -17 0 -34 -2 -37
-6z"/>
<path d="M1696 331 c-15 -28 -22 -51 -16 -51 5 0 10 5 10 10 0 15 58 12 63 -2
2 -7 6 -11 9 -8 3 3 -5 27 -18 54 l-22 49 -26 -52z m34 -15 c-14 -14 -24 0
-16 21 6 15 8 15 16 3 6 -9 5 -19 0 -24z"/>
<path d="M1830 328 c3 -41 5 -46 8 -20 2 17 6 32 10 32 3 0 21 -14 39 -32 l33
-32 -2 55 c-1 43 -2 46 -5 17 -2 -21 -6 -38 -8 -38 -2 0 -19 16 -38 35 -19 19
-36 35 -38 35 -2 0 -2 -24 1 -52z"/>
<path d="M1980 330 c0 -48 1 -50 28 -50 31 0 62 26 62 53 0 25 -29 47 -61 47
-28 0 -29 -1 -29 -50z m70 21 c5 -11 10 -22 10 -25 0 -12 -33 -36 -51 -36 -16
0 -19 7 -19 40 0 36 3 40 25 40 14 0 29 -8 35 -19z"/>
<path d="M2211 328 c0 -42 2 -48 9 -30 5 12 17 22 27 23 15 0 14 2 -5 11 -28
14 -24 30 9 39 21 6 21 7 -8 8 l-33 1 1 -52z"/>
<path d="M2320 330 l0 -50 33 1 c23 1 26 3 10 6 -20 4 -23 11 -23 49 0 24 -4
44 -10 44 -5 0 -10 -22 -10 -50z"/>
<path d="M2448 368 c-24 -20 -28 -44 -12 -67 28 -39 104 -16 104 31 0 38 -60
61 -92 36z m70 -35 c3 -28 -1 -33 -23 -39 -29 -7 -55 10 -55 35 0 25 22 42 50
39 20 -2 26 -9 28 -35z"/>
<path d="M2596 358 c3 -13 12 -34 19 -48 l13 -25 13 28 c11 25 29 37 29 19 0
-5 6 -17 14 -27 13 -18 15 -17 30 20 9 21 15 43 13 49 -3 6 -11 -5 -19 -24
l-15 -35 -13 28 c-17 34 -24 34 -39 0 l-13 -28 -13 33 c-16 36 -30 44 -19 10z"/>
<path d="M2790 330 l0 -50 33 1 c30 2 30 2 5 6 -35 5 -39 40 -5 46 l22 4 -22
2 c-33 2 -29 29 5 34 25 4 25 4 -5 6 l-33 1 0 -50z"/>
<path d="M2911 328 c1 -29 4 -43 6 -30 5 27 19 28 33 2 6 -11 15 -20 20 -20 6
0 5 8 -2 19 -9 15 -9 23 1 35 18 21 -2 46 -35 46 -22 0 -24 -4 -23 -52z m47
25 c-2 -10 -10 -18 -18 -18 -8 0 -16 8 -18 18 -2 12 3 17 18 17 15 0 20 -5 18
-17z"/>
<path d="M3043 364 c-6 -16 13 -38 40 -47 19 -6 -5 -29 -24 -24 -11 3 -19 1
-19 -5 0 -5 12 -8 28 -6 19 2 28 9 30 26 2 12 -1 22 -5 22 -5 0 -18 6 -29 14
-18 14 -18 15 6 25 25 10 25 10 2 10 -12 1 -25 -6 -29 -15z"/>
</g>
</svg>
