<?xml version="1.0" standalone="no"?>
<!DOCTYPE svg PUBLIC "-//W3C//DTD SVG 20010904//EN"
 "http://www.w3.org/TR/2001/REC-SVG-20010904/DTD/svg10.dtd">
<svg version="1.0" xmlns="http://www.w3.org/2000/svg"
 width="880.000000pt" height="480.000000pt" viewBox="0 0 880.000000 480.000000"
 preserveAspectRatio="xMidYMid meet">

<g transform="translate(0.000000,480.000000) scale(0.100000,-0.100000)"
fill="#000000" stroke="none">
<path d="M3557 4636 c-45 -14 -95 -58 -103 -91 -4 -16 5 -50 26 -97 134 -305
239 -459 400 -585 126 -99 176 -172 204 -294 8 -33 16 -62 18 -63 2 -2 39 -8
83 -14 73 -10 83 -9 112 9 63 39 124 124 150 211 24 79 21 216 -7 303 -59 187
-178 352 -342 476 -91 68 -202 123 -290 144 -74 17 -197 18 -251 1z"/>
<path d="M3283 4472 c-22 -22 -48 -65 -63 -102 -22 -57 -25 -81 -25 -185 0
-85 5 -136 18 -175 27 -87 25 -86 99 -65 65 20 263 27 320 12 26 -7 23 -1 -41
99 -72 109 -116 209 -147 328 -33 129 -91 160 -161 88z"/>
<path d="M4612 4112 c-58 -147 -71 -249 -48 -360 18 -86 65 -188 102 -222 l27
-25 -7 49 c-5 39 -2 53 15 77 37 52 111 75 160 48 17 -9 149 -199 149 -215 0
-3 -22 14 -50 38 -27 24 -63 52 -81 62 -30 18 -31 18 -21 0 6 -11 39 -47 75
-81 35 -34 62 -64 60 -67 -3 -2 -34 9 -69 24 -46 21 -64 25 -64 16 0 -19 18
-31 76 -50 28 -9 60 -23 70 -32 17 -14 12 -15 -63 -9 -45 4 -107 15 -137 26
-60 21 -101 23 -158 10 -29 -7 -40 -5 -50 7 -7 8 -33 28 -57 44 -86 54 -193
30 -230 -52 l-18 -40 -19 21 c-39 43 -108 62 -144 39 -13 -8 -12 -10 3 -10 25
0 115 -60 159 -106 43 -45 71 -105 88 -188 8 -41 9 -61 1 -69 -7 -7 -18 7 -37
48 -32 73 -61 115 -80 115 -12 0 -12 -5 1 -35 8 -19 22 -51 31 -71 l15 -36
-56 46 c-54 44 -75 55 -75 39 0 -5 25 -39 55 -77 30 -38 55 -70 55 -72 0 -11
-23 0 -76 36 -56 38 -85 49 -84 33 1 -10 101 -90 123 -99 9 -3 17 -10 17 -15
0 -21 -52 -5 -171 51 -69 33 -129 60 -133 60 -3 0 -6 -6 -6 -12 1 -14 115 -84
193 -118 26 -12 47 -23 47 -25 0 -2 -43 8 -96 22 -88 23 -128 25 -94 3 20 -13
136 -57 180 -68 l35 -9 -45 -7 c-25 -3 -58 -7 -73 -8 -15 -2 -26 -7 -25 -13 2
-6 37 -9 88 -7 100 5 101 -11 2 -31 -61 -12 -92 -29 -75 -40 5 -3 27 -2 49 3
21 5 56 11 78 14 33 5 37 4 26 -8 -6 -9 -44 -33 -83 -54 -147 -81 -245 -96
-317 -48 -31 20 -40 23 -40 11 0 -34 64 -75 119 -75 27 0 27 0 23 -60 -4 -53
-1 -64 22 -95 30 -39 63 -59 114 -68 43 -9 87 -40 109 -77 13 -23 28 -32 67
-40 90 -18 173 18 198 85 6 20 15 34 18 32 103 -60 235 -60 327 0 21 13 55 51
75 84 l37 59 59 -57 c85 -84 261 -165 284 -131 5 7 7 81 5 163 -3 121 -8 160
-24 202 l-21 52 44 21 c24 12 55 35 68 51 30 35 37 36 73 5 35 -29 100 -63
173 -88 59 -21 246 -36 295 -24 25 6 26 9 20 49 -10 70 -79 197 -143 267 l-59
64 43 52 c23 29 47 68 53 87 8 25 20 37 38 42 96 24 298 158 291 193 -5 24
-92 87 -173 126 -72 35 -158 56 -229 56 -50 1 -117 47 -149 105 -12 21 -39 52
-60 69 -35 28 -46 31 -108 32 -37 1 -75 6 -82 12 -7 7 -31 19 -52 27 -32 14
-49 15 -124 4 -76 -11 -90 -10 -118 4 -18 10 -52 17 -77 17 -42 0 -45 2 -56
34 -17 54 -73 119 -147 173 -100 73 -96 74 -131 -15z m395 -234 c41 -20 48
-21 114 -10 96 17 122 15 153 -9 32 -25 32 -34 2 -139 -13 -47 -30 -111 -36
-143 -15 -74 -33 -70 -42 9 -17 129 -54 152 -45 27 3 -41 4 -73 2 -71 -2 1
-10 40 -19 86 -25 131 -37 135 -34 9 2 -59 1 -107 -2 -107 -11 0 -35 47 -56
110 l-22 65 -1 -56 c-1 -41 5 -68 24 -103 13 -25 22 -46 19 -46 -19 0 -79 61
-113 113 -21 34 -55 77 -75 95 -30 28 -35 38 -30 60 11 46 48 106 74 119 33
17 36 17 87 -9z m452 -63 c36 -18 81 -71 81 -95 0 -11 22 -33 58 -57 53 -35
57 -41 57 -77 l0 -39 -110 -41 c-60 -23 -125 -50 -143 -60 -19 -10 -36 -15
-39 -12 -3 3 17 31 46 62 28 30 49 60 45 65 -6 11 -47 -16 -83 -55 -14 -14
-28 -26 -33 -26 -19 0 -5 33 37 84 25 31 45 58 45 61 0 17 -32 -1 -73 -41 -27
-25 -51 -44 -53 -41 -3 3 13 42 35 87 23 45 41 86 41 92 0 19 -41 -26 -66 -72
-14 -25 -22 -36 -20 -25 3 11 8 34 11 50 28 133 85 181 164 140z m272 -341
c21 -22 23 -34 24 -132 2 -113 -5 -140 -47 -179 -39 -37 -72 -44 -147 -33 -47
8 -76 8 -95 0 -26 -10 -28 -13 -22 -53 10 -69 -6 -101 -100 -195 l-87 -87 -71
1 c-39 0 -90 6 -114 13 -36 10 -41 15 -32 26 7 8 14 40 17 72 5 55 3 61 -28
103 -47 61 -91 84 -156 84 -52 -1 -61 -5 -205 -82 -32 -16 -58 -28 -58 -25 0
2 21 34 46 69 26 36 44 67 41 70 -2 3 -28 -21 -56 -53 -28 -31 -51 -54 -51
-51 0 3 11 31 25 62 17 40 22 62 16 73 -7 14 -14 7 -34 -33 -24 -47 -59 -94
-70 -94 -3 0 1 21 9 47 16 51 19 133 5 117 -4 -5 -18 -41 -30 -81 -12 -40 -25
-74 -29 -77 -4 -2 -5 25 0 62 8 76 1 135 -15 129 -6 -2 -20 -39 -31 -83 l-20
-79 -8 65 c-5 41 -21 92 -43 136 -42 86 -43 103 -10 142 48 57 125 54 195 -6
l44 -37 85 3 c72 3 95 0 136 -19 28 -12 74 -24 104 -26 72 -5 79 -13 12 -13
-45 0 -52 -3 -49 -17 3 -15 16 -19 76 -21 39 -2 72 -7 72 -12 0 -5 -27 -15
-60 -22 -75 -15 -78 -32 -5 -26 30 3 55 4 55 2 0 -1 -21 -16 -47 -33 -46 -29
-83 -71 -64 -71 5 0 38 18 72 40 35 22 72 44 82 50 10 6 -3 -17 -28 -51 -25
-33 -45 -65 -45 -70 0 -23 29 -2 70 51 25 32 47 57 48 55 2 -2 -6 -25 -17 -50
-38 -85 -23 -101 24 -27 l30 47 3 -77 c2 -52 7 -80 17 -88 13 -11 15 -7 16 26
0 22 3 57 7 79 l7 40 19 -47 c9 -27 22 -48 27 -48 11 0 11 2 -6 80 -8 36 -14
69 -15 74 0 19 34 -22 51 -60 21 -51 45 -71 35 -29 -19 74 -20 88 -5 80 8 -5
34 -22 58 -37 65 -41 70 -35 16 23 -26 28 -45 52 -42 55 2 2 35 -3 72 -11 37
-9 82 -15 99 -13 30 3 29 4 -19 21 -86 32 -125 50 -125 59 0 4 35 8 78 8 42 0
84 5 92 10 8 5 11 10 5 11 -39 4 -55 6 -94 7 -56 2 -45 14 32 36 38 11 57 22
57 32 0 12 -6 15 -22 10 -13 -3 -50 -9 -82 -13 -82 -9 -68 8 58 67 159 75 195
79 247 24z m-493 7 c21 -11 53 -34 71 -53 30 -31 32 -36 26 -83 -4 -27 -13
-60 -21 -72 -16 -25 -70 -57 -83 -49 -4 3 -23 8 -41 11 -19 3 -56 18 -83 32
-36 20 -47 31 -44 45 3 11 1 15 -5 12 -7 -5 -8 7 -4 32 3 22 6 48 7 59 0 35
66 82 117 84 12 1 40 -8 60 -18z m-303 -440 c105 -47 121 -128 43 -208 -24
-25 -62 -58 -85 -74 -51 -35 -53 -52 -18 -127 14 -30 25 -59 24 -65 0 -7 -21
-43 -47 -82 -53 -79 -103 -111 -190 -122 -63 -7 -135 17 -159 54 -18 27 -64
242 -55 257 3 5 22 -26 43 -70 41 -86 47 -84 23 8 -8 33 -14 64 -12 69 2 5 26
-21 53 -58 61 -82 88 -96 52 -27 -29 57 -49 114 -39 114 4 0 27 -14 51 -30 72
-49 82 -38 24 23 -31 32 -33 37 -13 27 14 -7 37 -21 52 -31 57 -40 52 -8 -7
47 l-45 42 45 -10 c89 -19 99 11 13 34 l-53 13 45 7 c25 3 64 7 88 7 42 1 56
14 26 25 -9 3 -39 6 -67 6 -29 0 -63 3 -76 7 -23 6 -23 6 7 19 16 6 55 17 86
24 31 6 58 15 61 20 6 10 -103 7 -155 -5 l-35 -8 46 36 c95 74 140 97 188 97
26 0 64 -9 86 -19z m-478 -36 c43 -18 73 -47 102 -98 39 -69 24 -123 -46 -167
-51 -32 -81 -37 -134 -18 -83 29 -120 115 -88 206 15 42 69 83 122 91 4 0 24
-6 44 -14z m-178 -337 c-12 -23 -31 -56 -41 -71 -11 -16 -18 -31 -14 -34 9
-10 36 17 79 82 47 68 57 60 33 -31 -8 -32 -13 -60 -11 -62 10 -10 25 13 40
63 18 62 31 70 39 23 4 -18 16 -80 28 -136 22 -104 22 -104 3 -140 -24 -45
-75 -72 -136 -72 -41 0 -50 5 -100 54 -40 40 -66 56 -95 62 -78 14 -134 85
-118 149 5 21 20 33 63 52 31 14 82 38 115 54 l59 29 -39 -42 c-21 -24 -44
-49 -51 -56 -21 -21 -15 -24 15 -8 16 8 55 42 87 75 32 34 60 59 62 57 3 -2
-6 -24 -18 -48z"/>
<path d="M5117 3373 c-4 -3 -7 -17 -7 -30 0 -18 5 -23 25 -23 14 0 28 7 31 15
11 27 -30 58 -49 38z"/>
<path d="M5222 3320 c-8 -8 -27 -13 -43 -12 -15 2 -30 -1 -33 -7 -6 -10 11
-17 59 -23 11 -2 23 -7 26 -12 4 -5 23 6 43 24 20 18 33 36 30 39 -11 12 -68
6 -82 -9z"/>
<path d="M4487 2875 c-9 -7 -17 -17 -17 -23 0 -11 -28 -9 -80 7 -19 6 -36 11
-37 11 -2 0 -3 -8 -3 -19 0 -29 24 -42 68 -36 29 3 44 1 49 -9 12 -21 51 -2
59 29 3 14 10 25 15 25 5 0 9 6 9 13 0 16 -42 18 -63 2z"/>
<path d="M3360 3854 c-82 -17 -134 -36 -235 -87 -113 -56 -191 -115 -282 -211
-126 -132 -183 -262 -183 -410 1 -106 23 -159 74 -176 20 -6 45 -8 57 -5 33
11 84 60 154 150 75 96 151 167 249 232 95 62 176 98 411 178 208 72 277 83
364 61 33 -8 34 -8 27 20 -26 108 -170 223 -314 253 -72 15 -242 13 -322 -5z"/>
<path d="M3770 3516 c-55 -15 -229 -90 -339 -145 -188 -95 -292 -171 -441
-321 -58 -59 -122 -119 -142 -134 -61 -44 -46 -103 39 -153 177 -104 451 -79
712 63 253 139 487 456 443 602 -21 68 -81 103 -176 101 -28 0 -71 -6 -96 -13z"/>
<path d="M4430 1833 c-85 -44 -117 -138 -70 -208 26 -40 26 -42 -14 -55 -121
-40 -188 -167 -140 -263 36 -71 91 -105 188 -114 78 -7 143 13 205 62 24 19
47 35 51 35 4 0 24 -20 44 -45 36 -43 39 -45 92 -45 30 0 54 4 54 8 0 5 -21
33 -46 62 -79 93 -80 94 -50 133 14 18 36 58 50 89 26 58 56 88 90 88 11 0 17
3 13 6 -7 8 -202 5 -222 -2 -32 -13 -13 -21 24 -11 51 14 71 -1 71 -53 0 -24
-10 -52 -32 -85 l-32 -48 -43 49 c-24 27 -64 75 -89 106 l-45 57 59 30 c58 29
82 61 82 108 0 37 -35 86 -74 104 -57 26 -104 24 -166 -8z m153 -34 c32 -34
37 -100 11 -137 -24 -34 -70 -55 -92 -41 -26 17 -59 69 -67 107 -20 97 80 145
148 71z m-64 -356 c61 -65 110 -122 108 -128 -2 -5 -25 -23 -52 -40 -40 -25
-59 -30 -110 -30 -52 0 -67 4 -99 29 -21 16 -44 44 -52 62 -17 41 -18 131 0
162 13 25 63 62 83 62 6 0 61 -53 122 -117z"/>
<path d="M1799 1816 c-87 -33 -155 -100 -190 -186 -8 -21 -14 -70 -14 -126 0
-81 3 -97 30 -149 54 -105 160 -165 289 -165 200 1 337 204 282 419 -21 84
-67 146 -135 184 -47 27 -66 31 -140 34 -56 2 -99 -2 -122 -11z m181 -24 c72
-38 119 -183 106 -328 -13 -165 -79 -254 -186 -254 -77 0 -131 48 -166 145
-24 69 -24 250 0 320 41 115 151 167 246 117z"/>
<path d="M2511 1808 c-74 -28 -142 -97 -170 -171 -26 -70 -28 -182 -5 -250 20
-60 84 -131 148 -165 44 -23 63 -27 141 -27 75 0 98 4 139 24 61 30 117 87
148 149 33 68 33 214 -1 290 -64 143 -244 210 -400 150z m195 -19 c59 -28 93
-98 107 -221 25 -213 -49 -358 -182 -358 -122 0 -186 106 -186 305 0 118 17
189 57 241 44 55 130 69 204 33z"/>
<path d="M372 1814 c4 -4 18 -12 30 -18 13 -7 26 -25 29 -41 9 -41 9 -474 0
-505 -4 -14 -16 -26 -26 -28 -11 -2 -24 -8 -30 -14 -6 -6 61 -8 190 -6 191 3
203 4 249 28 65 33 88 67 93 132 3 41 -1 60 -17 86 -22 35 -88 71 -131 72 -45
0 -39 11 24 44 69 34 90 64 89 127 -1 52 -15 75 -65 101 -39 21 -57 23 -242
26 -110 2 -197 0 -193 -4z m333 -24 c50 -19 71 -119 39 -186 -21 -44 -57 -63
-134 -71 l-60 -6 0 125 c0 83 4 128 12 136 15 15 107 16 143 2z m14 -298 c90
-48 95 -199 9 -252 -46 -28 -153 -29 -168 -1 -11 21 -14 253 -3 264 14 15 129
7 162 -11z"/>
<path d="M1030 1810 c0 -5 6 -10 14 -10 8 0 22 -10 30 -22 14 -19 16 -63 16
-278 0 -140 -4 -260 -8 -266 -4 -6 -20 -16 -37 -22 -23 -8 27 -11 213 -11
l242 -1 -1 78 c0 76 0 77 -17 52 -39 -58 -78 -91 -117 -100 -49 -12 -126 -12
-142 -2 -8 5 -14 83 -19 264 -6 231 -5 259 10 282 9 14 23 26 31 26 7 0 17 5
20 10 4 6 -37 10 -114 10 -74 0 -121 -4 -121 -10z"/>
<path d="M3060 1810 c0 -5 6 -10 14 -10 8 0 22 -10 30 -22 14 -19 16 -62 16
-273 0 -262 -1 -269 -45 -293 -16 -9 -4 -11 59 -12 79 0 86 3 44 24 -33 17
-39 64 -36 295 l3 206 33 -68 c19 -38 71 -154 117 -259 46 -105 86 -193 90
-196 10 -11 26 15 54 89 16 41 61 151 100 246 38 95 73 184 77 198 16 66 22
15 23 -230 l2 -265 -33 -20 -33 -20 118 0 c76 0 116 4 112 10 -3 6 -15 10 -25
10 -12 0 -22 9 -25 23 -3 12 -4 139 -3 282 3 258 3 259 26 271 42 21 35 24
-55 24 l-91 0 -40 -92 c-22 -51 -66 -159 -98 -241 -31 -81 -58 -146 -60 -145
-1 2 -29 64 -62 138 -34 74 -81 180 -106 235 l-45 100 -81 3 c-50 2 -80 -1
-80 -8z"/>
<path d="M5250 1810 c0 -5 9 -10 19 -10 11 0 27 -10 35 -22 14 -19 16 -63 16
-278 0 -270 -2 -280 -46 -280 -13 0 -26 -5 -29 -11 -5 -7 55 -10 201 -7 207 3
209 3 256 30 121 72 110 230 -19 272 -27 8 -59 16 -73 18 -21 3 -18 7 28 27
143 64 153 199 17 250 -49 18 -77 21 -230 21 -110 0 -175 -4 -175 -10z m356
-43 c46 -54 38 -159 -16 -199 -25 -18 -135 -42 -151 -32 -13 8 -11 222 2 246
10 18 18 20 76 16 56 -4 69 -8 89 -31z m-23 -266 c68 -26 101 -112 76 -193
-20 -60 -64 -88 -140 -88 -86 0 -89 6 -89 161 l0 129 64 0 c36 0 76 -4 89 -9z"/>
<path d="M5910 1810 c0 -5 8 -10 18 -10 11 0 26 -8 36 -18 15 -17 16 -48 14
-288 l-3 -269 -25 -3 c-14 -2 -29 -8 -34 -13 -6 -5 40 -9 117 -9 78 0 127 4
127 10 0 6 -8 10 -18 10 -36 0 -42 20 -42 137 l0 112 53 -6 c67 -7 93 -31 163
-149 29 -50 60 -96 68 -103 9 -8 42 -11 93 -9 74 3 76 4 47 16 -24 10 -42 33
-80 104 -30 55 -66 105 -92 128 l-43 39 35 16 c54 26 94 77 102 130 12 86 -33
149 -125 175 -48 13 -411 13 -411 0z m372 -35 c37 -28 48 -56 48 -126 0 -70
-19 -113 -58 -133 -25 -13 -127 -36 -159 -36 -10 0 -13 33 -13 153 0 85 3 157
8 161 4 4 39 6 77 4 50 -2 78 -9 97 -23z"/>
<path d="M6700 1810 c0 -5 9 -10 19 -10 11 0 27 -10 35 -22 14 -19 16 -63 16
-274 0 -139 -3 -259 -6 -268 -4 -9 -18 -16 -34 -16 -16 0 -32 -4 -35 -10 -4
-7 76 -10 233 -10 l240 0 6 31 c8 43 8 109 -1 109 -5 0 -18 -18 -31 -41 -35
-61 -72 -79 -162 -79 -46 0 -81 5 -88 12 -8 8 -12 54 -12 139 0 123 1 127 23
133 64 17 124 -10 156 -71 l20 -38 1 118 c0 64 -4 117 -8 117 -5 0 -16 -16
-25 -35 -25 -53 -71 -72 -154 -66 -10 1 -13 34 -13 131 l0 130 25 6 c14 3 57
4 96 2 68 -4 73 -5 108 -44 20 -22 41 -49 48 -60 10 -16 12 -12 12 31 1 28 -2
60 -5 73 l-6 22 -229 0 c-146 0 -229 -4 -229 -10z"/>
<path d="M7310 1811 c0 -5 8 -12 18 -15 24 -8 49 -62 126 -273 94 -258 122
-327 133 -330 10 -4 36 45 59 110 37 103 107 258 115 250 4 -4 38 -84 74 -178
37 -93 70 -173 74 -177 13 -15 29 9 51 77 12 39 56 162 97 275 58 161 80 211
103 232 17 15 30 30 30 33 0 3 -34 5 -75 5 -41 0 -75 -4 -75 -9 0 -5 10 -11
23 -13 39 -5 33 -57 -29 -233 -31 -88 -58 -170 -61 -182 -3 -13 -8 -23 -12
-23 -3 0 -20 39 -38 88 -17 48 -53 143 -79 211 -44 113 -46 125 -31 136 9 7
17 15 17 19 0 3 -50 6 -111 6 -83 0 -110 -3 -107 -12 3 -7 15 -15 29 -18 18
-4 35 -27 68 -93 l44 -88 -40 -87 c-22 -48 -48 -108 -58 -135 -10 -26 -19 -46
-20 -45 -4 4 -125 356 -138 400 -9 32 -8 40 8 58 l18 20 -106 0 c-60 0 -107
-4 -107 -9z"/>
<path d="M1878 823 c-35 -22 -53 -56 -53 -105 0 -33 7 -46 38 -74 30 -28 45
-34 81 -34 28 0 52 7 67 19 31 25 18 37 -21 21 -41 -17 -94 -5 -114 25 -51 78
33 169 116 124 28 -15 45 3 23 25 -22 21 -101 21 -137 -1z"/>
<path d="M2188 824 c-53 -28 -72 -98 -43 -154 39 -76 169 -80 219 -8 9 12 16
41 16 63 0 22 -7 51 -16 63 -34 49 -120 67 -176 36z m133 -43 c17 -18 29 -40
29 -56 0 -38 -50 -85 -90 -85 -44 0 -69 16 -86 55 -37 90 76 156 147 86z"/>
<path d="M2503 725 c2 -102 4 -115 20 -115 14 0 17 9 17 49 l0 50 42 3 c59 4
63 28 4 28 -46 0 -46 0 -46 35 l0 35 50 0 c38 0 50 4 50 15 0 12 -14 15 -69
15 l-69 0 1 -115z"/>
<path d="M2752 725 c1 -104 3 -115 20 -115 15 0 18 8 18 50 l0 50 45 0 c33 0
45 4 45 14 0 10 -14 16 -42 18 -40 3 -43 5 -46 36 l-3 32 50 0 c39 0 51 4 51
15 0 12 -14 15 -70 15 l-70 0 2 -115z"/>
<path d="M3000 725 l0 -116 73 3 c83 3 97 22 20 26 -29 2 -53 7 -54 13 -1 5
-1 18 -1 29 0 11 0 25 1 30 1 6 22 10 47 10 32 0 44 4 41 13 -2 7 -22 12 -48
12 -42 0 -44 1 -44 30 0 29 2 30 53 33 37 2 52 7 52 18 0 11 -16 14 -70 14
l-70 0 0 -115z"/>
<path d="M3267 833 c-4 -3 -7 -55 -7 -115 l0 -108 75 0 c60 0 75 3 75 15 0 12
-13 15 -56 15 l-55 0 3 38 c3 37 3 37 51 40 63 4 58 26 -6 30 -44 3 -47 5 -47
32 0 28 2 29 52 32 30 2 53 8 56 16 3 9 -15 12 -65 12 -39 0 -73 -3 -76 -7z"/>
<path d="M3777 833 c-9 -14 -97 -213 -97 -218 0 -16 32 -1 42 20 10 22 18 25
59 25 41 0 51 -4 65 -25 9 -14 24 -25 34 -25 15 0 10 17 -34 115 -48 109 -59
125 -69 108z m28 -93 c22 -42 19 -50 -20 -50 -19 0 -35 2 -35 5 0 7 33 75 37
75 1 0 9 -13 18 -30z"/>
<path d="M4010 725 c0 -108 1 -115 20 -115 18 0 20 7 20 80 l0 79 85 -87 84
-87 1 123 c0 102 -2 122 -15 122 -12 0 -15 -16 -15 -82 l0 -83 -83 83 c-45 45
-86 82 -90 82 -4 0 -7 -52 -7 -115z"/>
<path d="M4350 725 l0 -115 63 0 c113 0 169 65 136 158 -16 47 -64 72 -138 72
l-61 0 0 -115z m152 55 c44 -55 7 -127 -71 -137 l-41 -6 0 88 0 88 47 -6 c32
-3 53 -12 65 -27z"/>
<path d="M4860 725 c0 -103 2 -115 18 -115 13 0 17 8 16 37 -1 56 4 63 47 63
57 0 54 28 -3 32 -40 3 -43 5 -43 33 0 29 2 30 49 35 27 3 51 11 54 18 3 9
-15 12 -67 12 l-71 0 0 -115z"/>
<path d="M5100 725 l0 -115 70 0 c56 0 70 3 70 15 0 11 -12 15 -50 15 l-50 0
0 100 c0 93 -1 100 -20 100 -19 0 -20 -7 -20 -115z"/>
<path d="M5376 809 c-44 -38 -54 -83 -31 -133 21 -44 59 -66 115 -66 52 0 96
22 115 60 44 86 -15 170 -119 170 -36 0 -52 -6 -80 -31z m149 -24 c52 -51 16
-145 -54 -145 -57 0 -101 37 -101 85 0 74 102 114 155 60z"/>
<path d="M5695 823 c3 -10 22 -63 41 -118 19 -54 36 -100 38 -102 1 -1 13 23
26 55 13 31 31 70 41 85 l17 29 33 -81 c18 -45 36 -81 40 -81 3 0 22 44 41 98
19 53 38 105 42 115 6 13 3 17 -12 17 -18 0 -32 -28 -69 -140 -5 -15 -47 69
-59 117 -10 38 -24 27 -56 -47 -29 -66 -48 -88 -48 -55 0 31 -49 125 -66 125
-11 0 -14 -5 -9 -17z"/>
<path d="M6130 725 l0 -115 75 0 c60 0 75 3 75 15 0 12 -13 15 -61 15 l-60 0
3 38 c3 37 3 37 51 40 33 2 47 7 47 18 0 10 -13 14 -50 14 -49 0 -50 1 -50 30
0 30 1 30 55 30 42 0 55 3 55 15 0 12 -14 15 -70 15 l-70 0 0 -115z"/>
<path d="M6400 726 c0 -94 3 -116 14 -116 10 0 16 14 18 43 2 33 7 43 23 45
15 1 25 -9 39 -39 17 -37 50 -63 68 -53 4 3 -7 24 -23 48 l-31 43 26 26 c31
31 33 56 7 88 -14 18 -31 23 -80 27 l-61 4 0 -116z m104 68 c32 -31 7 -64 -48
-64 -23 0 -26 4 -26 33 0 19 3 37 7 40 12 13 51 7 67 -9z"/>
<path d="M6712 833 c-7 -3 -18 -16 -23 -30 -13 -34 9 -67 59 -91 28 -13 37
-23 37 -42 0 -31 -35 -39 -71 -15 -22 14 -25 14 -31 -1 -10 -26 25 -45 77 -42
36 2 47 8 59 29 22 39 8 73 -38 94 -22 10 -47 26 -56 35 -24 27 3 44 55 35 32
-5 40 -4 40 8 0 8 -7 18 -16 21 -19 7 -73 7 -92 -1z"/>
</g>
</svg>
